# xmcd
# 
# Track frame offsets:
#     150
#     14615
#     25318
#     44847
#     62330
#     76300
#     94749
#     113707
#     131914
#     146307
#     163419
# 
# Disc length: 2328
# 
# Revision: 2
# Processed by: cddbd v1.5.2PL0 Copyright (c) Steve Scherf et al.
# Submitted via: fre:ac v1.0.17
# 
DISCID=9609160b
DTITLE=Eileen - Finger prints
DYEAR=0
DGENRE=Country
TTITLE0=Jolene (Dolly Parton)
TTITLE1=Best Year Of My Life (Eileen)
TTITLE2=No Frontiers (Jimmy McCarthy)
TTITLE3=Daddy's Song (Eileen)
TTITLE4=Wings Of Fantasy (B. Clear - D. Meaney)
TTITLE5=Runaway (Corr)
TTITLE6=Peace Train (Cat Stevens)
TTITLE7=Me and Bobby McGee (K. Kristofferson - F. Foster)
TTITLE8=Desperado (Don Henley - Glenn Frey)
TTITLE9=L.A. Song (Beth Hart)
TTITLE10=Time To Say Goodbye (Christof Straub)
EXTD=
EXTT0=
EXTT1=
EXTT2=
EXTT3=
EXTT4=
EXTT5=
EXTT6=
EXTT7=
EXTT8=
EXTT9=
EXTT10=
PLAYORDER=
